<?xml version="1.0" encoding="utf-8"?>
<!-- Generator: Adobe Illustrator 19.1.0, SVG Export Plug-In . SVG Version: 6.00 Build 0)  -->
<svg version="1.1" id="Capa_1" xmlns="http://www.w3.org/2000/svg" xmlns:xlink="http://www.w3.org/1999/xlink" x="0px" y="0px"
	 viewBox="0 0 810 277.3" style="enable-background:new 0 0 810 277.3;" xml:space="preserve">
<style type="text/css">
	.st0{fill:#F7B617;}
	.st1{fill:#FFFFFF;}
	.st2{fill:none;stroke:#D3D7D9;stroke-width:0.883;stroke-miterlimit:10;}
	.st3{fill:#2B2B2B;}
	.st4{fill:#E5E5E5;}
	.st5{fill:#3C3C3B;}
</style>
<path class="st0" d="M75.5,152.1c2,1.1,2,2.5,2,3.7v5.3c0,0.9-0.7,1.8-1.6,1.8c-0.5,0-0.9-0.4-1.2-0.4L8.2,127.6
	c-1.8-0.9-2.8-1.9-2.8-3.4v-5.3c0-1.2,0.5-2.7,2.1-3.4l67.2-35.1c0.4-0.2,0.9-0.4,1.4-0.4c0.7,0,1.4,0.5,1.4,1.6v5.1
	c0,1.1-0.5,2.7-2.1,3.4L16,121.4L75.5,152.1z"/>
<path class="st0" d="M794.2,121.2l-59.6-31c-1.6-0.7-2.1-2.3-2.1-3.4v-5.1c0-1.1,0.7-1.6,1.4-1.6c0.5,0,0.9,0.2,1.4,0.4l67.2,35.1
	c1.6,0.7,2.1,2.1,2.1,3.4v5.3c0,1.4-0.9,2.5-2.8,3.4l-66.5,34.9c-0.5,0-0.7,0.4-1.2,0.4c-1.1,0-1.6-0.9-1.6-1.8v-5.3
	c0-1.2,0-2.7,1.9-3.7L794.2,121.2z"/>
<g>
	<path class="st3" d="M102.3,45.3h8c0.9,0,1.6,0.5,1.6,1.5v95.1c0,7.9,1.8,10.6,8.4,10.6h2c1.6,0,1.6,1.1,1.6,2.2v6.4
		c0,1.1-0.7,1.6-1.6,1.8c-1.8,0.2-3.5,0.2-4.4,0.2c-14.4,0-17.2-7.7-17.2-20.1V47C100.8,46.1,101.2,45.3,102.3,45.3"/>
	<path class="st3" d="M239.5,162.7c-9.5,0-17.4-3.7-21.4-8.6l-0.4,0.2v6c0,1.1-0.4,1.5-1.6,1.5H209c-1.1,0-1.6-0.2-1.6-1.3V47
		c0-1.1,0.5-1.6,1.6-1.6h8.2c1.1,0,1.3,0.5,1.3,1.5v42.4l0.5,0.2c4-4.4,12.1-8.2,21.6-8.2c21,0,28.7,15,28.7,30.3v21.9
		C269.3,150.5,258.9,162.7,239.5,162.7 M258.2,111.3c0-11.2-5.7-20.7-19.7-20.7c-11.7,0-19.9,9.3-19.9,20.5v22.3
		c0,11.2,8.2,19.9,19.7,19.9c13.7,0,19.9-8.4,19.9-20.1V111.3z"/>
	<path class="st3" d="M312.4,162.9c-19.7,0-31.1-11.1-31.1-30v-22.1c0-17.9,11.3-29.8,30.9-29.8c19.4,0,30.9,11.2,30.9,29.8v21.9
		C343.2,151.9,331.5,162.9,312.4,162.9 M332.2,111c0-11.7-6.6-20.3-19.7-20.3c-11.9,0-19.9,8.4-19.9,20.1v22.1
		c0,12.1,6.2,20.5,19.7,20.5c13.5,0,19.7-8.2,19.9-20.7V111z"/>
	<path class="st3" d="M459.5,63.3c0-0.7,0.4-1.5,1.5-1.8l7.7-1.8c1.3-0.4,1.8,0.5,1.8,1.5v19.7h20.1c0.9,0,1.5,0.4,1.5,1.5v6.4
		c0,1.1-0.4,1.6-1.5,1.6h-20.1v48.5c0,9.1,2.7,13.7,10.8,13.7c3.8,0,8.4-0.5,11.2-1.3c2-0.4,2.6,0.5,2.7,1.6l1.1,5.7
		c0.2,1.5,0,1.8-1.5,2.4c-3.7,1.5-10.8,2-15.2,2c-15.7,0-20.1-9.3-20.1-21.9V63.3z"/>
	<path class="st3" d="M535.1,162.9c-19.7,0-31.1-11.1-31.1-30v-22.1c0-17.9,11.3-29.8,30.9-29.8c19.4,0,30.9,11.2,30.9,29.8v21.9
		C565.8,151.9,554.1,162.9,535.1,162.9 M554.9,111c0-11.7-6.6-20.3-19.7-20.3c-11.9,0-19.9,8.4-19.9,20.1v22.1
		c0,12.1,6.2,20.5,19.7,20.5c13.5,0,19.7-8.2,19.9-20.7V111z"/>
	<path class="st3" d="M632.1,65.3c-4,0-7.3-3.1-7.3-7.5c0-4,3.3-7.1,7.3-7.1c4.2,0,7.5,3.1,7.5,7.1
		C639.6,61.8,636.2,65.3,632.1,65.3 M626.3,82.3c0-1.1,0.5-1.5,1.5-1.5h8.2c1.1,0,1.6,0.5,1.6,1.5v78.2c0,0.9-0.4,1.3-1.5,1.3h-8.2
		c-0.9,0-1.6-0.4-1.6-1.3V82.3z"/>
	<path class="st3" d="M167.1,80.8l-14.3,0c-0.7,0-1.2,0.5-1.2,1.2v7.3c0,0.7,0.5,1.2,1.2,1.2l13.2,0c13.7,0,18.1,7.1,18.1,17v7.9
		l-0.7,0.4c-4.4-4.9-12.1-7.7-18.6-7.7c-18.6,0-28.7,12.3-28.7,27.6c0,16.1,9.7,27.2,27.2,27.2c8,0,16.1-2.6,20.8-9l0.9,0.2v6.4
		c0,0.5,0.2,1.3,1.3,1.3h7.5c0.9,0,1.5-0.6,1.5-1.6V109C195.2,91.4,187.9,80.8,167.1,80.8 M164.9,153.6c-12.8,0-18.5-8-18.5-18.3
		c0-10.1,6.9-18.3,18.6-18.3c11.9,0,18.3,8.2,18.3,18.1C183.3,145.3,175.8,153.6,164.9,153.6"/>
	<path class="st3" d="M419.2,80.8l-14.3,0c-0.7,0-1.2,0.5-1.2,1.2v7.3c0,0.7,0.5,1.2,1.2,1.2l13.2,0c13.7,0,18.1,7.1,18.1,17v7.9
		l-0.7,0.4c-4.4-4.9-12.1-7.7-18.6-7.7c-18.6,0-28.7,12.3-28.7,27.6c0,16.1,9.7,27.2,27.2,27.2c8,0,16.1-2.6,20.8-9l0.9,0.2v6.4
		c0,0.5,0.2,1.3,1.3,1.3h7.5c0.9,0,1.5-0.6,1.5-1.6V109C447.3,91.4,440,80.8,419.2,80.8 M417,153.6c-12.8,0-18.5-8-18.5-18.3
		c0-10.1,6.9-18.3,18.6-18.3c11.9,0,18.3,8.2,18.3,18.1C435.5,145.3,428,153.6,417,153.6"/>
	<path class="st3" d="M681,80.8l-14.3,0c-0.7,0-1.2,0.5-1.2,1.2v7.3c0,0.7,0.5,1.2,1.2,1.2l13.2,0c13.7,0,18.1,7.1,18.1,17v7.9
		l-0.7,0.4c-4.4-4.9-12.1-7.7-18.6-7.7c-18.6,0-28.7,12.3-28.7,27.6c0,16.1,9.7,27.2,27.2,27.2c8,0,16.1-2.6,20.8-9l0.9,0.2v6.4
		c0,0.5,0.2,1.3,1.3,1.3h7.5c0.9,0,1.5-0.6,1.5-1.6V109C709.1,91.4,701.8,80.8,681,80.8 M678.8,153.6c-12.8,0-18.5-8-18.5-18.3
		c0-10.1,6.9-18.3,18.6-18.3c11.9,0,18.3,8.2,18.3,18.1C697.2,145.3,689.7,153.6,678.8,153.6"/>
	<path class="st3" d="M385.5,90.6c-13.2,0-19,11.6-19,24v45.7c0,1.1-0.4,1.5-1.5,1.5h-8.2c-0.9,0-1.6-0.4-1.6-1.3v-77
		c0-1.1,0.5-1.5,1.5-1.5h7.1c1.1,0,1.5,0.6,1.5,1.5v10.1h0.5c4.4-7.1,13-12.8,22.1-12.8l2.6,0c0.7,0,1.2,0.5,1.2,1.2v7.4
		c0,0.7-0.5,1.2-1.2,1.2L385.5,90.6z"/>
	<path class="st3" d="M608.2,90.6c-13.2,0-19,11.6-19,24v45.7c0,1.1-0.4,1.5-1.5,1.5h-8.2c-0.9,0-1.6-0.4-1.6-1.3v-77
		c0-1.1,0.5-1.5,1.5-1.5h7.1c1.1,0,1.5,0.6,1.5,1.5v10.1h0.5c4.4-7.1,13-12.8,22.1-12.8l2.6,0c0.7,0,1.2,0.5,1.2,1.2v7.4
		c0,0.7-0.5,1.2-1.2,1.2L608.2,90.6z"/>
</g>
<g>
	<path class="st3" d="M165.5,196.5c6,0,9,3.5,9,3.5l-1.7,2.5c0,0-2.7-3-7.2-3c-5.4,0-9.6,4-9.6,9.9c0,5.8,4.3,9.9,9.7,9.9
		c5,0,7.9-3.5,7.9-3.5l1.5,2.6c0,0-3.3,3.9-9.6,3.9c-7.3,0-12.9-5.2-12.9-12.9C152.5,201.9,158.2,196.5,165.5,196.5z"/>
	<path class="st3" d="M192.3,196.5c7.2,0,13,5.5,13,12.8c0,7.4-5.8,13-13,13s-13-5.6-13-13C179.3,202,185.1,196.5,192.3,196.5z
		 M192.3,219.3c5.3,0,9.6-4.3,9.6-10c0-5.6-4.3-9.7-9.6-9.7s-9.6,4.2-9.6,9.7C182.7,215,187,219.3,192.3,219.3z M194.1,187.3h3.9
		l-4.2,5.8h-3L194.1,187.3z"/>
	<path class="st3" d="M221,196.5c6,0,8,4.6,8,4.6h0.1c0,0-0.1-0.8-0.1-1.9v-12h3.3v34.4h-3.2v-2.6c0-1.1,0.1-1.8,0.1-1.8h-0.1
		c0,0-2,4.9-8.5,4.9c-6.6,0-10.7-5.3-10.7-12.9C209.9,201.6,214.5,196.5,221,196.5z M221.1,219.3c4.1,0,8-2.9,8-9.9
		c0-5-2.5-9.9-7.8-9.9c-4.4,0-7.9,3.7-7.9,9.9C213.4,215.5,216.5,219.3,221.1,219.3z"/>
	<path class="st3" d="M240.3,187.3h3.5v4.2h-3.5V187.3z M240.4,197.1h3.3v24.6h-3.3V197.1z"/>
	<path class="st3" d="M260.2,229c4.8,0,8.6-2.3,8.6-7.7V219c0-0.9,0.1-1.8,0.1-1.8h-0.1c-1.5,2.7-4,4.3-7.8,4.3
		c-6.6,0-11-5.2-11-12.6c0-7.4,4.1-12.4,10.7-12.4c6.5,0,8.1,4.1,8.1,4.1h0.1c0,0,0-0.3,0-0.8v-2.7h3.2v24c0,7.8-5.8,10.9-11.8,10.9
		c-2.8,0-5.7-0.7-8.1-2l1.3-2.7C253.6,227.3,256.6,229,260.2,229z M268.9,209c0-7.2-3.4-9.4-7.8-9.4c-4.8,0-7.6,3.5-7.6,9.3
		s3.2,9.7,8.1,9.7C265.5,218.6,268.9,216.2,268.9,209z"/>
	<path class="st3" d="M291.4,196.5c7.2,0,13,5.5,13,12.8c0,7.4-5.8,13-13,13s-13-5.6-13-13C278.4,202,284.2,196.5,291.4,196.5z
		 M291.4,219.3c5.3,0,9.6-4.3,9.6-10c0-5.6-4.3-9.7-9.6-9.7s-9.6,4.2-9.6,9.7C281.8,215,286.1,219.3,291.4,219.3z"/>
	<path class="st3" d="M333.2,196.5c6,0,8.1,4.7,8.1,4.7h0.1c0,0,0-0.8,0-1.9v-2.3h3.2v34.4h-3.3v-11.8c0-1.3,0.1-2.2,0.1-2.2h-0.1
		c0,0-2.1,4.8-8.4,4.8c-6.6,0-10.7-5.3-10.7-12.9C322.2,201.6,326.8,196.5,333.2,196.5z M333.4,219.3c4.1,0,8-2.9,8-9.9
		c0-5-2.5-9.9-7.8-9.9c-4.4,0-7.9,3.7-7.9,9.9C325.6,215.5,328.8,219.3,333.4,219.3z"/>
	<path class="st3" d="M352.3,197.1h3.3v14.8c0,3.9,0.6,7.3,5.3,7.3c5.6,0,9.1-4.9,9.1-10.3v-11.8h3.3v24.6h-3.2v-3.7
		c0-1.1,0.1-2,0.1-2h-0.1c-1,2.4-4.2,6.2-9.6,6.2c-5.8,0-8.2-3.1-8.2-9.5V197.1z"/>
	<path class="st3" d="M391.8,196.5c6.8,0,10.3,5.2,10.3,11.4c0,0.6-0.1,1.7-0.1,1.7h-18.9c0.1,6.3,4.5,9.7,9.5,9.7
		c4.5,0,7.5-3,7.5-3l1.5,2.5c0,0-3.6,3.4-9.1,3.4c-7.3,0-12.9-5.3-12.9-12.9C379.7,201.4,385.2,196.5,391.8,196.5z M398.7,206.9
		c-0.2-5.1-3.3-7.5-7-7.5c-4.1,0-7.7,2.6-8.5,7.5H398.7z"/>
	<path class="st3" d="M422.5,200.2h-3.2v-2.8h3.3v-7.1h3.3v7.1h6.2v2.8h-6.2v12.2c0,5.8,3.7,6.5,5.5,6.5c0.7,0,1.1-0.1,1.1-0.1v3
		c0,0-0.5,0.1-1.4,0.1c-2.8,0-8.6-0.9-8.6-9.2V200.2z"/>
	<path class="st3" d="M438,197.1h3.3v4.4c0,1.1-0.1,2-0.1,2h0.1c1.2-3.7,3.9-6.6,7.8-6.6c0.7,0,1.3,0.1,1.3,0.1v3.3
		c0,0-0.6-0.1-1.2-0.1c-3.5,0-6.1,2.7-7.1,6.4c-0.5,1.6-0.7,3.2-0.7,4.8v10.4H438V197.1z"/>
	<path class="st3" d="M468.5,206.5h1.4v-0.6c0-4.7-2.6-6.4-6.1-6.4c-4.1,0-6.9,2.3-6.9,2.3l-1.6-2.5c0,0,3.2-2.8,8.8-2.8
		c5.9,0,9.2,3.3,9.2,9.4v15.8H470V219c0-1.2,0.1-2.1,0.1-2.1H470c0,0-2.1,5.3-8.2,5.3c-4.1,0-8.4-2.4-8.4-7.3
		C453.4,206.7,464.2,206.5,468.5,206.5z M462.3,219.5c4.7,0,7.5-4.9,7.5-9.2v-1.1h-1.4c-3.9,0-11.6,0.1-11.6,5.6
		C456.8,217.1,458.7,219.5,462.3,219.5z"/>
	<path class="st3" d="M480.9,197.1h3.3v3.7c0,1.1-0.1,2-0.1,2h0.1c0.9-2.3,4-6.2,9.8-6.2c6.1,0,8.2,3.5,8.2,9.5v15.7h-3.3V207
		c0-3.9-0.6-7.3-5.3-7.3c-4.2,0-7.8,2.9-9,6.9c-0.3,1-0.4,2.2-0.4,3.3v11.8h-3.3V197.1z"/>
	<path class="st3" d="M509.7,216.3c0,0,2.7,3,7.3,3c2.6,0,4.9-1.3,4.9-3.9c0-5.4-13.3-4.1-13.3-12.1c0-4.4,4-6.8,8.4-6.8
		c5.2,0,7.6,2.7,7.6,2.7l-1.5,2.5c0,0-2.1-2.3-6.2-2.3c-2.5,0-4.9,1.1-4.9,3.8c0,5.4,13.3,4,13.3,12.1c0,4-3.5,6.9-8.4,6.9
		c-6,0-9.1-3.6-9.1-3.6L509.7,216.3z"/>
	<path class="st3" d="M532.7,200.2h-3.1v-2.8h3.1v-1.2c0-8.1,5.7-9.2,8.5-9.2c0.9,0,1.5,0.1,1.5,0.1v3c0,0-0.5-0.1-1.2-0.1
		c-1.9,0-5.5,0.7-5.5,6.2v1.2h6.3v2.8H536v21.5h-3.3V200.2z"/>
	<path class="st3" d="M558.2,196.5c7.2,0,13,5.5,13,12.8c0,7.4-5.8,13-13,13s-13-5.6-13-13C545.2,202,551,196.5,558.2,196.5z
		 M558.2,219.3c5.3,0,9.6-4.3,9.6-10c0-5.6-4.3-9.7-9.6-9.7s-9.6,4.2-9.6,9.7C548.6,215,552.9,219.3,558.2,219.3z"/>
	<path class="st3" d="M577.5,197.1h3.3v4.4c0,1.1-0.1,2-0.1,2h0.1c1.2-3.7,3.9-6.6,7.8-6.6c0.7,0,1.3,0.1,1.3,0.1v3.3
		c0,0-0.6-0.1-1.2-0.1c-3.5,0-6.1,2.7-7.1,6.4c-0.5,1.6-0.7,3.2-0.7,4.8v10.4h-3.3V197.1z"/>
	<path class="st3" d="M594.9,197.1h3.3v3.7c0,1.1-0.1,2-0.1,2h0.1c1.2-3.3,5.1-6.2,8.9-6.2c4.6,0,6.9,2.1,7.6,6.2h0.1
		c1.3-3.3,4.9-6.2,9.1-6.2c6,0,8.2,3.5,8.2,9.5v15.7h-3.3v-14.8c0-4-0.8-7.3-5.3-7.3c-3.8,0-6.9,3.3-7.8,6.9
		c-0.3,1.1-0.4,2.3-0.4,3.6v11.6h-3.3v-14.8c0-3.7-0.5-7.3-5.2-7.3c-4,0-7,3.5-8.1,7.2c-0.2,1-0.3,2.2-0.3,3.3v11.6h-3.3V197.1z"/>
	<path class="st3" d="M652.8,206.5h1.4v-0.6c0-4.7-2.6-6.4-6.1-6.4c-4.1,0-6.9,2.3-6.9,2.3l-1.6-2.5c0,0,3.2-2.8,8.8-2.8
		c5.9,0,9.2,3.3,9.2,9.4v15.8h-3.2V219c0-1.2,0.1-2.1,0.1-2.1h-0.1c0,0-2.1,5.3-8.2,5.3c-4.1,0-8.4-2.4-8.4-7.3
		C637.7,206.7,648.5,206.5,652.8,206.5z M646.6,219.5c4.7,0,7.5-4.9,7.5-9.2v-1.1h-1.4c-3.9,0-11.6,0.1-11.6,5.6
		C641.1,217.1,642.9,219.5,646.6,219.5z"/>
</g>
</svg>
